<mxfile host="Electron" modified="2024-08-02T15:58:54.810Z" agent="Mozilla/5.0 (X11; Linux x86_64) AppleWebKit/537.36 (KHTML, like Gecko) draw.io/24.5.3 Chrome/124.0.6367.207 Electron/30.0.6 Safari/537.36" etag="uTyMQsogcuU1gi_sjXTJ" version="24.5.3" type="device">
  <diagram name="Page-1" id="Od5l3wLrRDW3ovaMI6OH">
    <mxGraphModel dx="1434" dy="843" grid="1" gridSize="10" guides="1" tooltips="1" connect="1" arrows="1" fold="1" page="1" pageScale="1" pageWidth="850" pageHeight="1100" math="0" shadow="0">
      <root>
        <mxCell id="0" />
        <mxCell id="1" parent="0" />
        <mxCell id="XgSgT4kqmvN1IkSfaM_B-1" value="&lt;div style=&quot;text-align: justify;&quot;&gt;[&lt;/div&gt;&lt;div style=&quot;text-align: justify;&quot;&gt;&amp;nbsp; &amp;nbsp; {&lt;/div&gt;&lt;div style=&quot;text-align: justify;&quot;&gt;&amp;nbsp; &amp;nbsp; &amp;nbsp; &amp;nbsp; &quot;op&quot;: &quot;replace&quot;,&lt;/div&gt;&lt;div style=&quot;text-align: justify;&quot;&gt;&amp;nbsp; &amp;nbsp; &amp;nbsp; &amp;nbsp; &quot;path&quot;: &quot;name&quot;,&lt;/div&gt;&lt;div style=&quot;text-align: justify;&quot;&gt;&amp;nbsp; &amp;nbsp; &amp;nbsp; &amp;nbsp; &quot;value&quot;: &quot;new_name&quot;&lt;/div&gt;&lt;div style=&quot;text-align: justify;&quot;&gt;&amp;nbsp; &amp;nbsp; }&lt;/div&gt;&lt;div style=&quot;text-align: justify;&quot;&gt;]&lt;/div&gt;" style="text;html=1;align=center;verticalAlign=middle;resizable=0;points=[];autosize=1;strokeColor=none;fillColor=none;" vertex="1" parent="1">
          <mxGeometry x="280" y="338" width="160" height="110" as="geometry" />
        </mxCell>
      </root>
    </mxGraphModel>
  </diagram>
</mxfile>
